# xmcd
#
# Track frame offsets: 
#        150
#        22038
#        40474
#        55649
#        75211
#        89415
#
# Disc length: 2582 seconds
#
# Revision: 1
# Processed by: cddbd v1.5.2PL0 Copyright (c) Steve Scherf et al.
# Submitted via: ExactAudioCopyFreeDBPlugin 1.0
#
DISCID=3d0a1406
DTITLE=Godiego - Suite New Genesis
DYEAR=1976
DGENRE=JPop
TTITLE0=If You Are Passing By That Way
TTITLE1=Yellow Center Line
TTITLE2=Magic Painting
TTITLE3=It's Good To Be Home Again
TTITLE4=Salad Girl
TTITLE5=Suite 'Genesis'
EXTD=Year: 2008
EXTT0=
EXTT1=
EXTT2=
EXTT3=
EXTT4=
EXTT5=
PLAYORDER=
